<svg width="80" height="66" viewBox="0 0 80 66" fill="none" xmlns="http://www.w3.org/2000/svg">
<path opacity="0.1" fill-rule="evenodd" clip-rule="evenodd" d="M36.631 0.0564916C45.245 -0.458167 53.3565 2.58147 60.3535 7.63182C69.0069 13.8776 80.3184 20.6874 79.9931 31.3544C79.6691 41.979 67.4642 47.31 58.9495 53.6729C52.1512 58.7532 45.037 62.5897 36.631 63.7584C26.4487 65.1742 14.7204 67.786 7.10377 60.8816C-0.643345 53.8589 -0.844874 41.6668 0.884144 31.3544C2.35516 22.5808 8.89019 16.1668 15.5833 10.3067C21.6869 4.96278 28.533 0.54032 36.631 0.0564916Z" fill="#36B27E"/>
<path d="M40 39C40 41.655 38.845 44.055 37 45.69C35.41 47.13 33.31 48 31 48C26.035 48 22 43.965 22 39C22 34.86 24.82 31.35 28.63 30.315C29.665 32.925 31.885 34.935 34.63 35.685C35.38 35.895 36.175 36 37 36C37.825 36 38.62 35.895 39.37 35.685C39.775 36.705 40 37.83 40 39Z" stroke="#36B27E" stroke-width="2.25" stroke-linecap="round" stroke-linejoin="round"/>
<path d="M46 27C46 28.17 45.775 29.295 45.37 30.315C44.335 32.925 42.115 34.935 39.37 35.685C38.62 35.895 37.825 36 37 36C36.175 36 35.38 35.895 34.63 35.685C31.885 34.935 29.665 32.925 28.63 30.315C28.225 29.295 28 28.17 28 27C28 22.035 32.035 18 37 18C41.965 18 46 22.035 46 27Z" stroke="#36B27E" stroke-width="2.25" stroke-linecap="round" stroke-linejoin="round"/>
<path d="M52 39C52 43.965 47.965 48 43 48C40.69 48 38.59 47.13 37 45.69C38.845 44.055 40 41.655 40 39C40 37.83 39.775 36.705 39.37 35.685C42.115 34.935 44.335 32.925 45.37 30.315C49.18 31.35 52 34.86 52 39Z" stroke="#36B27E" stroke-width="2.25" stroke-linecap="round" stroke-linejoin="round"/>
</svg>
