<svg width="80" height="66" viewBox="0 0 80 66" fill="none" xmlns="http://www.w3.org/2000/svg">
<path opacity="0.1" fill-rule="evenodd" clip-rule="evenodd" d="M36.631 0.0564916C45.245 -0.458167 53.3565 2.58147 60.3535 7.63182C69.0069 13.8776 80.3184 20.6874 79.9931 31.3544C79.6691 41.979 67.4642 47.31 58.9495 53.6729C52.1512 58.7532 45.037 62.5897 36.631 63.7584C26.4487 65.1742 14.7204 67.786 7.10377 60.8816C-0.643345 53.8589 -0.844874 41.6668 0.884144 31.3544C2.35516 22.5808 8.89019 16.1668 15.5833 10.3067C21.6869 4.96278 28.533 0.54032 36.631 0.0564916Z" fill="#36B27E"/>
<path d="M47.5 28.5C47.5 30.675 46.855 32.67 45.745 34.335C44.125 36.735 41.56 38.43 38.575 38.865C38.065 38.955 37.54 39 37 39C36.46 39 35.935 38.955 35.425 38.865C32.44 38.43 29.875 36.735 28.255 34.335C27.145 32.67 26.5 30.675 26.5 28.5C26.5 22.695 31.195 18 37 18C42.805 18 47.5 22.695 47.5 28.5Z" stroke="#36B27E" stroke-width="2.25" stroke-linecap="round" stroke-linejoin="round"/>
<path d="M50.8749 42.705L48.3999 43.29C47.8449 43.425 47.4099 43.845 47.2899 44.4L46.7649 46.605C46.4799 47.805 44.9499 48.165 44.1549 47.22L36.9999 39L29.8449 47.235C29.0499 48.18 27.5199 47.82 27.2349 46.62L26.7099 44.415C26.5749 43.86 26.1399 43.425 25.5999 43.305L23.1249 42.72C21.9849 42.45 21.5799 41.025 22.4049 40.2L28.2549 34.35C29.8749 36.75 32.4399 38.445 35.4249 38.88C35.9349 38.97 36.4599 39.015 36.9999 39.015C37.5399 39.015 38.0649 38.97 38.5749 38.88C41.5599 38.445 44.1249 36.75 45.7449 34.35L51.5949 40.2C52.4199 41.01 52.0149 42.435 50.8749 42.705Z" stroke="#36B27E" stroke-width="2.25" stroke-linecap="round" stroke-linejoin="round"/>
<path d="M37.87 23.97L38.755 25.74C38.875 25.98 39.19 26.22 39.475 26.265L41.08 26.535C42.1 26.7 42.34 27.45 41.605 28.185L40.36 29.43C40.15 29.64 40.03 30.045 40.105 30.345L40.465 31.89C40.75 33.105 40.105 33.585 39.025 32.94L37.525 32.055C37.255 31.89 36.805 31.89 36.535 32.055L35.035 32.94C33.955 33.57 33.31 33.105 33.595 31.89L33.955 30.345C34.015 30.06 33.91 29.64 33.7 29.43L32.455 28.185C31.72 27.45 31.96 26.715 32.98 26.535L34.585 26.265C34.855 26.22 35.17 25.98 35.29 25.74L36.175 23.97C36.61 23.01 37.39 23.01 37.87 23.97Z" stroke="#36B27E" stroke-width="2.25" stroke-linecap="round" stroke-linejoin="round"/>
</svg>
