<svg width="69" height="82" viewBox="0 0 69 82" fill="none" xmlns="http://www.w3.org/2000/svg">
<path opacity="0.1" fill-rule="evenodd" clip-rule="evenodd" d="M37.326 0.0200698C49.5838 0.52735 59.0124 11.1082 65.5197 21.579C70.728 29.9598 68.5219 40.0795 68.3646 49.9643C68.2117 59.5777 71.447 70.7208 64.6306 77.4545C57.8321 84.1703 46.7808 81.783 37.326 80.6259C29.3354 79.6481 22.1242 76.6834 15.9399 71.4959C8.95965 65.6408 2.35941 58.9708 0.772395 49.9643C-1.11507 39.2527 0.305408 27.9033 6.71527 19.1454C14.1208 9.027 24.8528 -0.49613 37.326 0.0200698Z" fill="#B566FF"/>
<path d="M35 31.75V52C35 53.62 34.34 55.105 33.29 56.185L33.23 56.245C33.095 56.38 32.945 56.515 32.81 56.62C32.36 57.01 31.85 57.31 31.325 57.52C31.16 57.595 30.995 57.655 30.83 57.715C30.245 57.91 29.615 58 29 58C28.595 58 28.19 57.955 27.8 57.88C27.605 57.835 27.41 57.79 27.215 57.73C26.975 57.655 26.75 57.58 26.525 57.475C26.525 57.46 26.525 57.46 26.51 57.475C26.09 57.265 25.685 57.025 25.31 56.74L25.295 56.725C25.1 56.575 24.92 56.425 24.755 56.245C24.59 56.065 24.425 55.885 24.26 55.69C23.975 55.315 23.735 54.91 23.525 54.49C23.54 54.475 23.54 54.475 23.525 54.475C23.525 54.475 23.525 54.46 23.51 54.445C23.42 54.235 23.345 54.01 23.27 53.785C23.21 53.59 23.165 53.395 23.12 53.2C23.045 52.81 23 52.405 23 52V31.75C23 29.5 24.5 28 26.75 28H31.25C33.5 28 35 29.5 35 31.75Z" stroke="#B566FF" stroke-width="2.25" stroke-linecap="round" stroke-linejoin="round"/>
<path d="M53 49.75V54.25C53 56.5 51.5 58 49.25 58H29C29.615 58 30.245 57.91 30.83 57.715C30.995 57.655 31.16 57.595 31.325 57.52C31.85 57.31 32.36 57.01 32.81 56.62C32.945 56.515 33.095 56.38 33.23 56.245L33.29 56.185L43.49 46H49.25C51.5 46 53 47.5 53 49.75Z" stroke="#B566FF" stroke-width="2.25" stroke-linecap="round" stroke-linejoin="round"/>
<path d="M27.215 57.73C26.315 57.46 25.4601 56.965 24.7551 56.245C24.0351 55.54 23.54 54.685 23.27 53.785C23.855 55.66 25.34 57.145 27.215 57.73Z" stroke="#B566FF" stroke-width="2.25" stroke-linecap="round" stroke-linejoin="round"/>
<path d="M47.555 41.935L43.49 46L33.29 56.185C34.34 55.105 35 53.62 35 52V37.51L39.065 33.445C40.655 31.855 42.785 31.855 44.375 33.445L47.555 36.625C49.145 38.215 49.145 40.345 47.555 41.935Z" stroke="#B566FF" stroke-width="2.25" stroke-linecap="round" stroke-linejoin="round"/>
<path d="M29 53.5C29.8284 53.5 30.5 52.8284 30.5 52C30.5 51.1716 29.8284 50.5 29 50.5C28.1716 50.5 27.5 51.1716 27.5 52C27.5 52.8284 28.1716 53.5 29 53.5Z" stroke="#B566FF" stroke-width="2.25" stroke-linecap="round" stroke-linejoin="round"/>
</svg>
