<svg width="80" height="71" viewBox="0 0 80 71" fill="none" xmlns="http://www.w3.org/2000/svg">
<path opacity="0.1" fill-rule="evenodd" clip-rule="evenodd" d="M41.6894 3.69344C50.2593 5.24077 58.1004 8.12984 64.687 13.8268C71.9274 20.0893 80.2597 27.2551 79.9938 36.8244C79.7307 46.2926 70.7825 52.5907 63.4433 58.5783C57.07 63.7777 49.8246 66.8618 41.6894 68.0741C31.6018 69.5773 20.4557 72.3433 12.317 66.1968C3.5426 59.5701 0.971715 47.8001 0.311521 36.8244C-0.398848 25.0146 -0.678181 11.0872 8.55731 3.69237C17.5194 -3.48354 30.3911 1.65348 41.6894 3.69344Z" fill="#FF6AC2"/>
<path d="M50.895 27.14L45.84 47.4351C45.48 48.9501 44.13 50 42.57 50H22.86C20.595 50 18.975 47.7799 19.65 45.6049L25.965 25.3251C26.4 23.9151 27.705 22.9399 29.175 22.9399H47.625C49.05 22.9399 50.235 23.8099 50.73 25.0099C51.015 25.6549 51.075 26.39 50.895 27.14Z" stroke="#FF6AC2" stroke-width="2.25" stroke-miterlimit="10"/>
<path d="M42 50H49.17C51.105 50 52.62 48.365 52.485 46.43L51 26" stroke="#FF6AC2" stroke-width="2.25" stroke-miterlimit="10" stroke-linecap="round" stroke-linejoin="round"/>
<path d="M32.52 26.57L34.08 20.0901" stroke="#FF6AC2" stroke-width="2.25" stroke-miterlimit="10" stroke-linecap="round" stroke-linejoin="round"/>
<path d="M42.57 26.585L43.98 20.0751" stroke="#FF6AC2" stroke-width="2.25" stroke-miterlimit="10" stroke-linecap="round" stroke-linejoin="round"/>
<path d="M29.55 35H41.55" stroke="#FF6AC2" stroke-width="2.25" stroke-miterlimit="10" stroke-linecap="round" stroke-linejoin="round"/>
<path d="M28.05 41H40.05" stroke="#FF6AC2" stroke-width="2.25" stroke-miterlimit="10" stroke-linecap="round" stroke-linejoin="round"/>
</svg>
