<svg width="80" height="71" viewBox="0 0 80 71" fill="none" xmlns="http://www.w3.org/2000/svg">
<path opacity="0.1" fill-rule="evenodd" clip-rule="evenodd" d="M41.6894 3.69344C50.2593 5.24077 58.1004 8.12984 64.687 13.8268C71.9274 20.0893 80.2597 27.2551 79.9938 36.8244C79.7307 46.2926 70.7825 52.5907 63.4433 58.5783C57.07 63.7777 49.8246 66.8618 41.6894 68.0741C31.6018 69.5773 20.4557 72.3433 12.317 66.1968C3.5426 59.5701 0.971715 47.8001 0.311521 36.8244C-0.398848 25.0146 -0.678181 11.0872 8.55731 3.69237C17.5194 -3.48354 30.3911 1.65348 41.6894 3.69344Z" fill="#FF6AC2"/>
<path d="M51 42.11V24.005C51 22.205 49.53 20.87 47.745 21.02H47.655C44.505 21.29 39.72 22.895 37.05 24.575L36.795 24.74C36.36 25.01 35.64 25.01 35.205 24.74L34.83 24.515C32.16 22.85 27.39 21.26 24.24 21.005C22.455 20.855 21 22.205 21 23.99V42.11C21 43.55 22.17 44.9 23.61 45.08L24.045 45.14C27.3 45.575 32.325 47.225 35.205 48.8L35.265 48.83C35.67 49.055 36.315 49.055 36.705 48.83C39.585 47.24 44.625 45.575 47.895 45.14L48.39 45.08C49.83 44.9 51 43.55 51 42.11Z" stroke="#FF6AC2" stroke-width="2.25" stroke-linecap="round" stroke-linejoin="round"/>
<path d="M36 25.235V47.735" stroke="#FF6AC2" stroke-width="2.25" stroke-linecap="round" stroke-linejoin="round"/>
<path d="M29.625 29.735H26.25" stroke="#FF6AC2" stroke-width="2.25" stroke-linecap="round" stroke-linejoin="round"/>
<path d="M30.75 34.235H26.25" stroke="#FF6AC2" stroke-width="2.25" stroke-linecap="round" stroke-linejoin="round"/>
</svg>
