<svg width="80" height="74" viewBox="0 0 80 74" fill="none" xmlns="http://www.w3.org/2000/svg">
<path opacity="0.1" fill-rule="evenodd" clip-rule="evenodd" d="M35.7276 71.5561C46.274 72.0253 57.5545 77.1122 66.1888 71.0544C75.6377 64.4251 81.3076 52.0915 79.7411 40.6764C78.2769 30.0068 66.9736 24.7128 58.8548 17.6124C51.6056 11.2724 45.2024 3.9663 35.7276 2.18348C24.0785 -0.00850168 8.42569 -2.94779 1.84356 6.88476C-4.86018 16.899 8.78705 28.6926 9.95964 40.6764C10.8998 50.2853 1.67594 61.0385 7.86851 68.4595C14.0819 75.9056 26.0237 71.1243 35.7276 71.5561Z" fill="#f6875c"/>
<path d="M28.39 40.53V47.985C28.39 50.715 28.39 50.715 30.97 52.455L38.065 56.55C39.13 57.165 40.87 57.165 41.935 56.55L49.03 52.455C51.61 50.715 51.61 50.715 51.61 47.985V40.53C51.61 37.8 51.61 37.8 49.03 36.06L41.935 31.965C40.87 31.35 39.13 31.35 38.065 31.965L30.97 36.06C28.39 37.8 28.39 37.8 28.39 40.53Z" stroke="#f56025" stroke-width="2.25" stroke-linecap="round" stroke-linejoin="round"/>
<path d="M48.25 35.445V31.5C48.25 28.5 46.75 27 43.75 27H36.25C33.25 27 31.75 28.5 31.75 31.5V35.34" stroke="#f56025" stroke-width="2.25" stroke-linecap="round" stroke-linejoin="round"/>
<path d="M40.945 40.485L41.8 41.82C41.935 42.03 42.235 42.24 42.46 42.3L43.99 42.69C44.935 42.93 45.19 43.74 44.575 44.49L43.57 45.705C43.42 45.9 43.3 46.245 43.315 46.485L43.405 48.06C43.465 49.035 42.775 49.53 41.875 49.17L40.405 48.585C40.18 48.495 39.805 48.495 39.58 48.585L38.11 49.17C37.21 49.53 36.52 49.02 36.58 48.06L36.67 46.485C36.685 46.245 36.565 45.885 36.415 45.705L35.41 44.49C34.795 43.74 35.05 42.93 35.995 42.69L37.525 42.3C37.765 42.24 38.065 42.015 38.185 41.82L39.04 40.485C39.58 39.675 40.42 39.675 40.945 40.485Z" stroke="#f56025" stroke-width="2.25" stroke-linecap="round" stroke-linejoin="round"/>
</svg>
