<svg width="69" height="82" viewBox="0 0 69 82" fill="none" xmlns="http://www.w3.org/2000/svg">
<path opacity="0.1" fill-rule="evenodd" clip-rule="evenodd" d="M37.326 0.0200698C49.5838 0.52735 59.0124 11.1082 65.5197 21.579C70.728 29.9598 68.5219 40.0795 68.3646 49.9643C68.2117 59.5777 71.447 70.7208 64.6306 77.4545C57.8321 84.1703 46.7808 81.783 37.326 80.6259C29.3354 79.6481 22.1242 76.6834 15.9399 71.4959C8.95965 65.6408 2.35941 58.9708 0.772395 49.9643C-1.11507 39.2527 0.305408 27.9033 6.71527 19.1454C14.1208 9.027 24.8528 -0.49613 37.326 0.0200698Z" fill="#B566FF"/>
<path d="M35.735 28.345L28.25 31.165C26.525 31.81 25.115 33.85 25.115 35.68V46.825C25.115 48.595 26.285 50.92 27.71 51.985L34.16 56.8C36.275 58.39 39.755 58.39 41.87 56.8L48.32 51.985C49.745 50.92 50.915 48.595 50.915 46.825V35.68C50.915 33.835 49.505 31.795 47.78 31.15L40.295 28.345C39.02 27.88 36.98 27.88 35.735 28.345Z" stroke="#B566FF" stroke-width="2.25" stroke-linecap="round" stroke-linejoin="round"/>
<path d="M33.575 42.805L35.99 45.22L42.44 38.77" stroke="#B566FF" stroke-width="2.25" stroke-linecap="round" stroke-linejoin="round"/>
</svg>
