<svg width="80" height="74" viewBox="0 0 80 74" fill="none" xmlns="http://www.w3.org/2000/svg">
<path opacity="0.1" fill-rule="evenodd" clip-rule="evenodd" d="M35.7276 71.5561C46.274 72.0253 57.5545 77.1122 66.1888 71.0544C75.6377 64.4251 81.3076 52.0915 79.7411 40.6764C78.2769 30.0068 66.9736 24.7128 58.8548 17.6124C51.6056 11.2724 45.2024 3.9663 35.7276 2.18348C24.0785 -0.00850168 8.42569 -2.94779 1.84356 6.88476C-4.86018 16.899 8.78705 28.6926 9.95964 40.6764C10.8998 50.2853 1.67594 61.0385 7.86851 68.4595C14.0819 75.9056 26.0237 71.1243 35.7276 71.5561Z" fill="#f6875c"/>
<path d="M49 52.29H47.86C46.66 52.29 45.52 52.755 44.68 53.595L42.115 56.1301C40.945 57.2851 39.04 57.2851 37.87 56.1301L35.305 53.595C34.465 52.755 33.31 52.29 32.125 52.29H31C28.51 52.29 26.5 50.295 26.5 47.835V31.47C26.5 29.01 28.51 27.015 31 27.015H49C51.49 27.015 53.5 29.01 53.5 31.47V47.835C53.5 50.28 51.49 52.29 49 52.29Z" stroke="#f56025" stroke-width="2.25" stroke-miterlimit="10" stroke-linecap="round" stroke-linejoin="round"/>
<path d="M32.5 37.7401C32.5 36.3451 33.64 35.205 35.035 35.205C36.43 35.205 37.57 36.3451 37.57 37.7401C37.57 40.5601 33.565 40.86 32.68 43.545C32.5 44.1 32.965 44.655 33.55 44.655H37.57" stroke="#f56025" stroke-width="2.25" stroke-linecap="round" stroke-linejoin="round"/>
<path d="M46.06 44.64V36.075C46.06 35.685 45.805 35.34 45.43 35.235C45.055 35.13 44.65 35.28 44.44 35.61C43.36 37.35 42.19 39.33 41.17 41.07C41.005 41.355 41.005 41.73 41.17 42.015C41.335 42.3 41.65 42.4799 41.995 42.4799H47.5" stroke="#f56025" stroke-width="2.25" stroke-linecap="round" stroke-linejoin="round"/>
</svg>
