<svg width="80" height="80" viewBox="0 0 80 80" fill="none" xmlns="http://www.w3.org/2000/svg">
<circle cx="40" cy="40" r="40" fill="#FF541E"/>
<path d="M49.9419 51.1223C49.887 51.1772 49.8733 51.2321 49.9007 51.287C49.9282 51.3419 49.9831 51.3693 50.0655 51.3693H61.2254C61.3626 51.3693 61.4725 51.4242 61.5548 51.5341C61.6646 51.6164 61.7195 51.7262 61.7195 51.8635V55.858C61.7195 55.9953 61.6646 56.1188 61.5548 56.2286C61.4725 56.311 61.3626 56.3522 61.2254 56.3522H42.6942C42.5569 56.3522 42.4334 56.311 42.3235 56.2286C42.2412 56.1188 42.2 55.9953 42.2 55.858V52.0694C42.2 51.8223 42.2824 51.6164 42.4471 51.4517C43.7923 50.1339 45.165 48.7063 46.5651 47.1689C47.9653 45.6041 48.8438 44.6295 49.2007 44.2451C49.9694 43.3391 50.7518 42.4744 51.548 41.6508C54.0462 38.8779 55.2954 36.8189 55.2954 35.4737C55.2954 34.5128 54.9522 33.7304 54.2659 33.1264C53.5795 32.495 52.6873 32.1792 51.5891 32.1792C50.491 32.1792 49.5988 32.495 48.9124 33.1264C48.2261 33.7304 47.8829 34.5403 47.8829 35.556V36.5856C47.8829 36.7228 47.828 36.8464 47.7182 36.9562C47.6358 37.0385 47.526 37.0797 47.3887 37.0797H42.5294C42.3922 37.0797 42.2686 37.0385 42.1588 36.9562C42.0765 36.8464 42.0353 36.7228 42.0353 36.5856V34.6501C42.1176 33.1676 42.5844 31.8635 43.4354 30.7379C44.2865 29.5849 45.4121 28.7064 46.8122 28.1024C48.2398 27.4984 49.8321 27.1964 51.5891 27.1964C53.5383 27.1964 55.2267 27.567 56.6543 28.3083C58.1094 29.0221 59.2213 29.9967 59.99 31.2321C60.7861 32.4675 61.1842 33.8402 61.1842 35.3501C61.1842 36.5032 60.8959 37.6837 60.3194 38.8917C59.7429 40.0996 58.8781 41.4037 57.725 42.8038C56.874 43.8745 55.9543 44.9315 54.9659 45.9747C53.9776 47.0179 52.5088 48.5279 50.5596 50.5045L49.9419 51.1223Z" fill="white"/>
<path d="M28.5564 56.8052C25.5365 56.8052 23.1481 55.9678 21.391 54.2932C19.634 52.591 18.7555 50.2849 18.7555 47.3748V36.5032C18.7555 33.648 19.634 31.3831 21.391 29.7084C23.1481 28.0337 25.5365 27.1964 28.5564 27.1964C31.5763 27.1964 33.9648 28.0337 35.7218 29.7084C37.5063 31.3831 38.3986 33.648 38.3986 36.5032V47.3748C38.3986 50.2849 37.5063 52.591 35.7218 54.2932C33.9648 55.9678 31.5763 56.8052 28.5564 56.8052ZM28.5564 51.8223C29.7919 51.8223 30.7665 51.4517 31.4803 50.7105C32.2215 49.9418 32.5921 48.926 32.5921 47.6631V36.3385C32.5921 35.0756 32.2215 34.0735 31.4803 33.3323C30.7665 32.5636 29.7919 32.1792 28.5564 32.1792C27.3485 32.1792 26.3739 32.5636 25.6326 33.3323C24.9188 34.0735 24.5619 35.0756 24.5619 36.3385V47.6631C24.5619 48.926 24.9188 49.9418 25.6326 50.7105C26.3739 51.4517 27.3485 51.8223 28.5564 51.8223Z" fill="white"/>
</svg>
