<svg width="80" height="80" viewBox="0 0 80 80" fill="none" xmlns="http://www.w3.org/2000/svg">
<circle cx="40" cy="40" r="40" fill="#FF541E"/>
<path d="M50.4198 27.6494C50.5571 27.5671 50.763 27.5259 51.0375 27.5259H56.0203C56.1576 27.5259 56.2674 27.5808 56.3498 27.6906C56.4596 27.773 56.5145 27.8828 56.5145 28.02V55.858C56.5145 55.9953 56.4596 56.1188 56.3498 56.2287C56.2674 56.311 56.1576 56.3522 56.0203 56.3522H51.2022C51.065 56.3522 50.9414 56.311 50.8316 56.2287C50.7492 56.1188 50.7081 55.9953 50.7081 55.858V33.2911C50.7081 33.2362 50.6806 33.1813 50.6257 33.1264C50.5708 33.0715 50.5159 33.0578 50.461 33.0852L46.3841 34.1971L46.2194 34.2383C45.9723 34.2383 45.8488 34.0873 45.8488 33.7853L45.7252 30.2438C45.7252 29.9693 45.8488 29.7771 46.0958 29.6673L50.4198 27.6494Z" fill="white"/>
<path d="M32.8946 56.8052C29.8747 56.8052 27.4862 55.9678 25.7292 54.2932C23.9721 52.591 23.0936 50.2849 23.0936 47.3748V36.5032C23.0936 33.648 23.9721 31.3831 25.7292 29.7084C27.4862 28.0337 29.8747 27.1964 32.8946 27.1964C35.9145 27.1964 38.3029 28.0337 40.06 29.7084C41.8445 31.3831 42.7367 33.648 42.7367 36.5032V47.3748C42.7367 50.2849 41.8445 52.591 40.06 54.2932C38.3029 55.9678 35.9145 56.8052 32.8946 56.8052ZM32.8946 51.8223C34.13 51.8223 35.1046 51.4517 35.8184 50.7105C36.5596 49.9418 36.9303 48.926 36.9303 47.6631V36.3385C36.9303 35.0756 36.5596 34.0735 35.8184 33.3323C35.1046 32.5636 34.13 32.1792 32.8946 32.1792C31.6866 32.1792 30.712 32.5636 29.9708 33.3323C29.257 34.0735 28.9001 35.0756 28.9001 36.3385V47.6631C28.9001 48.926 29.257 49.9418 29.9708 50.7105C30.712 51.4517 31.6866 51.8223 32.8946 51.8223Z" fill="white"/>
</svg>
