<svg width="80" height="80" viewBox="0 0 80 80" fill="none" xmlns="http://www.w3.org/2000/svg">
<circle cx="40" cy="40" r="40" fill="#FF541E"/>
<path d="M61.8866 43.7922C62.0238 43.7922 62.1336 43.8471 62.216 43.9569C62.3258 44.0392 62.3807 44.1491 62.3807 44.2863V48.4456C62.3807 48.5828 62.3258 48.7064 62.216 48.8162C62.1336 48.8985 62.0238 48.9397 61.8866 48.9397H60.1158C59.9785 48.9397 59.9099 49.0084 59.9099 49.1456V55.858C59.9099 55.9953 59.855 56.1188 59.7452 56.2287C59.6628 56.311 59.553 56.3522 59.4157 56.3522H54.5976C54.4603 56.3522 54.3368 56.311 54.227 56.2287C54.1446 56.1188 54.1035 55.9953 54.1035 55.858V49.1456C54.1035 49.0084 54.0348 48.9397 53.8975 48.9397H41.2552C41.1179 48.9397 40.9943 48.8985 40.8845 48.8162C40.8022 48.7064 40.761 48.5828 40.761 48.4456V45.1511C40.761 44.9864 40.8022 44.7805 40.8845 44.5334L48.297 27.8965C48.4068 27.6494 48.599 27.5259 48.8735 27.5259H54.0211C54.2133 27.5259 54.3368 27.5808 54.3917 27.6906C54.4741 27.773 54.4741 27.9102 54.3917 28.1024L47.5146 43.5451C47.4871 43.6 47.4871 43.6549 47.5146 43.7098C47.542 43.7647 47.5832 43.7922 47.6381 43.7922H53.8975C54.0348 43.7922 54.1035 43.7235 54.1035 43.5863V38.4799C54.1035 38.3426 54.1446 38.2328 54.227 38.1504C54.3368 38.0406 54.4603 37.9857 54.5976 37.9857H59.4157C59.553 37.9857 59.6628 38.0406 59.7452 38.1504C59.855 38.2328 59.9099 38.3426 59.9099 38.4799V43.5863C59.9099 43.7235 59.9785 43.7922 60.1158 43.7922H61.8866Z" fill="white"/>
<path d="M27.6115 56.8052C24.5916 56.8052 22.2031 55.9678 20.4461 54.2932C18.6891 52.591 17.8105 50.2849 17.8105 47.3748V36.5032C17.8105 33.648 18.6891 31.3831 20.4461 29.7084C22.2031 28.0337 24.5916 27.1964 27.6115 27.1964C30.6314 27.1964 33.0199 28.0337 34.7769 29.7084C36.5614 31.3831 37.4536 33.648 37.4536 36.5032V47.3748C37.4536 50.2849 36.5614 52.591 34.7769 54.2932C33.0199 55.9678 30.6314 56.8052 27.6115 56.8052ZM27.6115 51.8223C28.8469 51.8223 29.8215 51.4517 30.5353 50.7105C31.2766 49.9418 31.6472 48.926 31.6472 47.6631V36.3385C31.6472 35.0756 31.2766 34.0735 30.5353 33.3323C29.8215 32.5636 28.8469 32.1792 27.6115 32.1792C26.4035 32.1792 25.4289 32.5636 24.6877 33.3323C23.9739 34.0735 23.617 35.0756 23.617 36.3385V47.6631C23.617 48.926 23.9739 49.9418 24.6877 50.7105C25.4289 51.4517 26.4035 51.8223 27.6115 51.8223Z" fill="white"/>
</svg>
