<svg width="167" height="124" viewBox="0 0 167 124" fill="none" xmlns="http://www.w3.org/2000/svg">
<mask id="mask0_381_27" style="mask-type:alpha" maskUnits="userSpaceOnUse" x="0" y="0" width="167" height="124">
<path d="M39.4168 110.966L37.7598 109.309C37.5667 109.096 37.3895 108.869 37.2296 108.629C39.0356 107.138 44.0065 102.002 44.9344 95.8213C45.3404 92.4723 44.9893 89.0749 43.9071 85.8797C43.6751 85.2169 43.41 84.6204 43.1614 84.0736L42.6478 82.599C42.4916 82.1522 42.3091 81.7151 42.101 81.29C40.4515 81.9874 38.8845 82.8654 37.4284 83.9079C36.0293 84.8744 34.7646 86.0222 33.6672 87.3212C32.4217 88.7414 31.5503 90.45 31.1321 92.2921C30.5702 95.5436 30.9437 98.8879 32.2091 101.935C31.7678 101.431 31.3895 100.874 31.0824 100.279L28.9118 96.6001L26.6914 92.8223C26.1447 91.7453 25.863 90.9996 25.863 90.9996C27.8513 90.0386 33.2364 86.6419 35.291 81.4391C36.3084 78.4928 36.6813 75.3625 36.3846 72.2596C36.252 70.9507 35.9372 69.8571 35.8046 69.0452C35.756 68.6054 35.6841 68.1684 35.5892 67.7362C33.9943 68.028 32.4378 68.5005 30.9498 69.1446C29.5239 69.7418 28.1816 70.5215 26.9566 71.4643C25.625 72.5087 24.5532 73.8471 23.8249 75.3747C22.6932 78.0206 22.2927 80.9218 22.6651 83.7754C22.5491 83.7754 21.6544 80.6272 20.6768 77.4624C20.1963 75.8055 19.6826 74.3142 19.3678 73.1047L19.0032 71.0832C23.0052 70.1913 26.5759 67.9435 29.1106 64.7206C29.9109 63.4662 30.5301 62.1051 30.9498 60.6776C31.4103 59.4023 31.7271 58.0797 31.8942 56.7341C32.0535 55.3302 32.0535 53.9128 31.8942 52.5089C30.4544 52.4628 29.0142 52.5852 27.6028 52.8734C24.7348 53.3411 22.1301 54.8228 20.2625 57.0489C18.7935 59.0188 17.8833 61.3486 17.628 63.7927C17.4734 63.0963 17.3956 62.3851 17.396 61.6718C17.396 60.3959 17.2137 58.6727 17.1143 56.9661C17.0149 55.2594 16.8989 53.5528 16.8327 52.2769V50.1395C20.4512 50.1937 23.9725 48.9672 26.7743 46.6765C27.726 45.7445 28.5205 44.6645 29.1271 43.4786C30.4381 41.3514 31.2746 38.9664 31.5794 36.4863C30.3467 36.1926 29.0853 36.037 27.8182 36.0224C25.2489 35.9082 22.723 36.713 20.6933 38.2924C19.152 39.6326 17.9773 41.3433 17.28 43.2632C17.2532 42.9434 17.2532 42.622 17.28 42.3022C17.28 41.7388 17.4954 40.9766 17.6114 40.2144C17.8434 38.7066 18.0919 37.1822 18.0919 37.1822C19.3269 36.1084 20.4586 34.9213 21.4721 33.6364C22.9021 32.025 23.96 30.1186 24.5706 28.0525C25.2109 25.3363 25.301 22.5194 24.8357 19.7678C24.6062 18.3636 24.2513 16.9828 23.7752 15.642C22.5102 16.2578 21.325 17.0257 20.2459 17.9286C17.7895 19.7667 15.9795 22.3367 15.0763 25.2688C14.4928 27.5371 14.3968 29.9033 14.7946 32.2114C15.206 33.8621 15.824 35.4542 16.6338 36.9502C16.6338 36.9502 16.1036 39.9493 15.7391 42.9649L15.4077 49.0459C15.017 46.9728 14.2111 45.0002 13.0383 43.2466C11.5311 41.0624 9.39178 39.3915 6.90758 38.4581C5.72533 37.9776 4.48158 37.6653 3.21261 37.5302C3.21261 37.5302 3.12976 38.0935 2.98064 39.0214C2.79774 40.2445 2.76436 41.4853 2.88122 42.7164C2.98346 45.9484 3.91954 49.0992 5.5986 51.8627C6.8223 53.2793 8.35527 54.3955 10.0791 55.1253C11.8029 55.855 13.6714 56.1787 15.5402 56.0713C15.5402 56.0713 15.7391 59.5509 15.9545 63.0305C16.551 66.4603 17.164 69.8902 17.164 69.8902C16.1726 67.5437 14.7057 65.4281 12.856 63.6767C10.718 61.5717 7.96886 60.1972 5.0021 59.7497C3.57453 59.4991 2.11894 59.4489 0.67749 59.6006C0.729461 61.5996 0.990471 63.5878 1.45625 65.5325C2.4074 69.1127 4.25501 72.3916 6.82475 75.0599C11.3151 78.8543 16.9321 77.6447 18.8707 77.1642C18.8707 77.1642 19.8483 80.3952 20.8424 83.6097L23.5267 89.7901C21.743 87.3991 19.5629 85.3311 17.0812 83.676C14.2005 81.89 10.8378 81.0391 7.45437 81.2403C5.83175 81.2949 4.2251 81.5794 2.6824 82.0853C3.29626 84.2913 4.09438 86.4419 5.06837 88.5142C6.92946 92.3066 9.79495 95.5159 13.3531 97.7931C19.4009 100.858 25.2168 97.9256 27.1223 96.8983C27.1223 96.8983 28.7792 99.7317 30.4361 102.499L34.3796 107.685C31.7536 105.469 28.7886 103.69 25.5979 102.416C22.9545 101.554 20.1598 101.257 17.3943 101.542C14.6287 101.827 11.9538 102.69 9.54213 104.073C10.7991 106.332 12.2341 108.487 13.8336 110.518C16.8084 114.253 20.7856 117.064 25.2996 118.621C32.8718 120.278 38.2569 115.522 39.947 113.948L41.6039 115.605L43.2608 117.262L45.3817 118.919L51.1313 123.608L52.0923 122.266L44.2219 115.804C42.4987 114.18 40.7423 112.341 39.4168 110.966Z" fill="#437779"/>
<path d="M146.091 82.3662C146.472 81.1567 146.952 79.5494 147.45 77.9256C147.947 76.3018 148.46 74.7112 148.775 73.5016C149.09 72.292 149.156 71.4304 149.156 71.4304C151.21 71.9175 153.351 71.907 155.4 71.3998C157.449 70.8925 159.347 69.9033 160.937 68.5142C162.308 67.1981 163.401 65.6206 164.152 63.8748C164.815 62.1756 165.315 60.4167 165.643 58.6223C166.029 56.6555 166.256 54.6607 166.322 52.6573C164.868 52.6065 163.413 52.7514 161.998 53.0881C158.996 53.7356 156.26 55.2714 154.144 57.4956C152.537 59.4229 151.302 61.6306 150.498 64.0073C150.643 63.2926 150.721 62.5659 150.73 61.8367C150.73 60.5443 150.913 58.8045 151.012 57.0648C151.111 55.325 151.227 53.5852 151.294 52.2762L151.211 50.1056C153.051 50.0839 154.86 49.632 156.494 48.7861C158.128 47.9403 159.542 46.7239 160.622 45.2342C161.529 43.8519 162.17 42.3121 162.511 40.6942C162.755 39.127 162.855 37.5408 162.809 35.9553C162.766 34.2203 162.583 32.4915 162.263 30.7857C160.999 30.9998 159.772 31.3902 158.617 31.9456C156.152 33.0365 154.081 34.8584 152.685 37.1649C151.721 39.0051 151.092 41.0027 150.83 43.0636C150.846 42.7435 150.846 42.4227 150.83 42.1026C150.73 41.5061 150.614 40.7439 150.498 39.9651C150.233 38.4242 150.001 36.8832 150.001 36.8832C150.808 35.3704 151.421 33.7614 151.824 32.0947C152.18 29.7884 152.039 27.4324 151.41 25.1852C150.519 22.2469 148.707 19.6733 146.24 17.845C145.165 16.9447 143.986 16.177 142.727 15.5584C142.25 16.9 141.889 18.2804 141.65 19.6842C141.191 22.4369 141.287 25.2537 141.932 27.9689C142.544 30.0732 143.626 32.0108 145.097 33.6356C146.05 34.9401 147.126 36.1497 148.311 37.2478C148.311 37.2478 148.841 40.1971 149.189 43.163C149.537 46.129 149.504 49.128 149.504 49.128C148.935 47.1909 147.919 45.4144 146.538 43.9418C144.573 42.2217 142.058 41.2583 139.447 41.2244C138.178 41.1504 136.904 41.2227 135.652 41.4398C135.689 41.8069 135.744 42.1719 135.818 42.5334C135.967 43.1962 136.215 44.1903 136.431 45.1845C136.957 47.701 138.187 50.0165 139.977 51.862C142.537 54.3151 145.896 55.7624 149.438 55.938C149.438 55.938 149.222 59.3513 149.024 62.7812L147.831 69.5084C147.748 67.0966 147.077 64.7416 145.875 62.6487C144.037 60.306 141.453 58.663 138.552 57.9926C137.157 57.6084 135.722 57.3915 134.277 57.3464C134.168 58.7583 134.168 60.1764 134.277 61.5882C134.209 64.4584 134.981 67.2859 136.497 69.7238C138.79 73.1015 142.188 75.5742 146.107 76.7161C146.107 76.7161 145.146 79.8808 144.169 83.0456L141.468 89.0768C142.162 86.3016 142.012 83.3822 141.037 80.6927C139.626 77.7133 137.217 75.3216 134.227 73.9324C132.793 73.2094 131.281 72.6535 129.72 72.2755C129.214 73.7263 128.891 75.2348 128.759 76.7658C128.084 79.8282 128.244 83.0157 129.223 85.9949C130.874 90.2488 133.925 93.8136 137.872 96.1023C137.872 96.1023 136.298 98.8859 134.559 101.587L130.681 106.674C131.924 103.757 133.216 100.593 132.454 97.1793C131.708 93.6577 129.735 90.5158 126.887 88.3147C125.51 87.1904 124.016 86.2182 122.43 85.415C121.541 86.8012 120.828 88.2929 120.309 89.8556C119.928 91.2806 119.232 92.6558 118.9 94.3128C118.505 96.0909 118.421 97.9241 118.652 99.731C119.099 105.829 123.623 111.247 125.28 112.887L123.706 114.544L122.049 116.201L119.977 117.858L114.327 122.448L115.288 123.79C115.288 123.79 119.348 120.476 123.324 117.162L128.295 112.025L129.952 110.369C130.317 109.954 130.516 109.673 130.516 109.673C132.355 111.147 137.939 115.488 145.279 113.185C149.902 111.909 153.564 107.867 156.215 104.387C156.878 103.509 157.474 102.73 158.004 101.885C158.534 101.04 158.816 100.327 159.114 99.7144C159.727 98.4551 160.042 97.6764 160.042 97.6764C158.435 96.883 156.722 96.325 154.956 96.0194C153.276 95.6898 151.56 95.584 149.852 95.7046C147.838 95.8911 145.858 96.3538 143.97 97.0799C140.859 98.4956 138.047 100.492 135.685 102.962C136.118 102.451 136.495 101.895 136.812 101.305C137.442 100.261 138.254 98.8528 139.082 97.4444C139.91 96.036 140.739 94.6442 141.352 93.5837C141.965 92.5233 142.214 91.7445 142.214 91.7445C144.219 92.6393 150.034 95.0584 155.883 91.6451C159.661 89.5905 161.964 85.3819 163.588 81.836C164.257 80.3562 164.81 78.8274 165.245 77.2629C165.51 76.0533 165.61 75.3243 165.61 75.3243C164.046 74.9235 162.434 74.745 160.821 74.794C159.278 74.8351 157.746 75.0745 156.264 75.5065C154.489 75.9953 152.809 76.7795 151.294 77.8262C148.905 79.6147 146.904 81.8695 145.412 84.454L145.643 83.9238C145.759 83.4764 145.909 82.9627 146.091 82.3662Z" fill="#437779"/>
<path d="M103.076 116.681H63.873C62.8827 116.686 61.9345 117.082 61.2358 117.784C60.5371 118.486 60.1448 119.436 60.1448 120.426V123.74H106.804V120.426C106.804 119.436 106.412 118.486 105.713 117.784C105.015 117.082 104.066 116.686 103.076 116.681V116.681Z" fill="#437779"/>
<path d="M103.076 99.0515H63.873V114.56H103.076V99.0515Z" fill="#437779"/>
<path d="M103.076 89.4424H63.873C62.8842 89.4424 61.9359 89.8352 61.2368 90.5343C60.5376 91.2335 60.1448 92.1818 60.1448 93.1705C60.1448 94.1593 60.5376 95.1075 61.2368 95.8067C61.9359 96.5058 62.8842 96.8986 63.873 96.8986H103.076C104.065 96.8986 105.013 96.5058 105.712 95.8067C106.411 95.1075 106.804 94.1593 106.804 93.1705C106.804 92.1818 106.411 91.2335 105.712 90.5343C105.013 89.8352 104.065 89.4424 103.076 89.4424V89.4424Z" fill="#437779"/>
<path d="M123.971 4.4406H113.781C113.781 2.98249 113.88 1.49125 113.88 0H53.0868C53.0868 1.49125 53.0868 2.98249 53.1697 4.4406H42.9795V6.31294C42.9795 28.9633 52.2915 46.7091 64.1717 46.7588C66.021 49.827 68.2972 52.6165 70.932 55.0435V56.104C70.9918 57.4821 71.5024 58.8025 72.3855 59.8622C73.2686 60.9219 74.4753 61.6623 75.82 61.9696H76.052V74.264H75.82C74.4753 74.5713 73.2686 75.3117 72.3855 76.3714C71.5024 77.4311 70.9918 78.7515 70.932 80.1296V80.7924C69.7918 81.439 68.8432 82.376 68.1826 83.5081C67.5219 84.6402 67.1728 85.9271 67.1708 87.2379H99.7462C99.7442 85.9271 99.3951 84.6402 98.7345 83.5081C98.0738 82.376 97.1252 81.439 95.985 80.7924V80.1296C95.9225 78.7523 95.4109 77.4333 94.5283 76.3741C93.6456 75.3149 92.4405 74.5738 91.097 74.264H90.865V62.0358H90.981H91.097C92.4405 61.726 93.6456 60.9849 94.5283 59.9258C95.4109 58.8666 95.9225 57.5476 95.985 56.1703V55.1098C98.6245 52.6871 100.901 49.8969 102.745 46.8251C114.626 46.8251 123.938 29.0296 123.938 6.37922L123.971 4.4406ZM46.7407 8.18528H53.3685C53.98 20.1229 56.8886 31.8304 61.9349 42.6662C53.7661 40.2636 47.1881 25.6329 46.7407 8.18528V8.18528ZM93.6321 79.1852H73.318C73.5367 78.5219 73.9183 77.9242 74.4277 77.4465C74.9372 76.9689 75.5583 76.6267 76.2343 76.4512H90.7159C91.3932 76.6239 92.0157 76.9651 92.5256 77.4432C93.0355 77.9212 93.4162 78.5204 93.6321 79.1852ZM90.7159 59.8818H76.2343C75.557 59.7091 74.9344 59.3679 74.4245 58.8899C73.9146 58.4118 73.534 57.8126 73.318 57.1479H93.6321C93.4189 57.8141 93.0392 58.4149 92.5289 58.8933C92.0185 59.3718 91.3945 59.712 90.7159 59.8818V59.8818ZM105.015 42.6662C110.069 31.8332 112.978 20.1241 113.582 8.18528H120.209C119.762 25.6329 113.184 40.2636 105.015 42.6662Z" fill="#437779"/>
</mask>
<g mask="url(#mask0_381_27)">
<rect x="-6.41727" y="-13.6456" width="177.392" height="143.899" fill="white"/>
</g>
</svg>
