<svg width="176" height="35" viewBox="0 0 176 35" fill="none" xmlns="http://www.w3.org/2000/svg">
<mask id="mask0_381_3997" style="mask-type:luminance" maskUnits="userSpaceOnUse" x="0" y="0" width="176" height="35">
<path d="M176 0H0V35H176V0Z" fill="white"/>
</mask>
<g mask="url(#mask0_381_3997)">
<path d="M75.1143 35C73.9945 35.0765 72.8739 34.8666 71.8498 34.3886V30.7606C72.6605 31.1749 73.5536 31.3844 74.4567 31.372C74.9341 31.3791 75.4075 31.2811 75.8459 31.0844C76.2844 30.8877 76.678 30.5967 77.001 30.2306C77.9055 29.1912 78.6216 27.9896 79.1146 26.6842L71.2313 7.98981H75.6309L81.0561 21.4094L86.3012 7.98981H90.5912L81.9799 29.1871C80.362 33.0679 78.0735 35.0055 75.1143 35Z" fill="#0D5992"/>
<path d="M108.597 26.7412H92.2743V24.0264L102.287 11.6505H92.8928V8.02246H107.97V10.8515L97.9578 23.1459H108.558L108.597 26.7412Z" fill="#0D5992"/>
<path d="M119.345 27.2385C118.035 27.2861 116.729 27.0573 115.506 26.5654C114.283 26.0736 113.169 25.3291 112.229 24.3769C110.446 22.5179 109.444 19.9975 109.444 17.3695C109.444 14.7415 110.446 12.2211 112.229 10.3622C114.17 8.52088 116.7 7.50031 119.326 7.50031C121.951 7.50031 124.482 8.52088 126.422 10.3622C127.324 11.264 128.037 12.3501 128.516 13.5525C128.996 14.7548 129.231 16.0474 129.209 17.3491C129.23 18.6566 128.993 19.9546 128.514 21.1633C128.034 22.3719 127.323 23.4655 126.422 24.3769C125.487 25.323 124.378 26.0639 123.163 26.5554C121.947 27.047 120.649 27.2793 119.345 27.2385ZM119.345 23.6105C120.129 23.6275 120.908 23.4771 121.633 23.1686C122.359 22.8601 123.016 22.4001 123.565 21.8169C124.646 20.6094 125.247 19.0201 125.247 17.3695C125.247 15.7189 124.646 14.1295 123.565 12.9221C122.865 12.193 122.003 11.6551 121.055 11.3564C120.107 11.0577 119.104 11.0073 118.133 11.2097C117.162 11.4122 116.254 11.8612 115.49 12.5169C114.726 13.1725 114.129 14.0146 113.753 14.9683C113.376 15.922 113.232 16.9578 113.332 17.9835C113.432 19.0094 113.774 19.9935 114.327 20.8485C114.881 21.7036 115.628 22.4031 116.504 22.8849C117.379 23.3668 118.355 23.616 119.345 23.6105Z" fill="#0D5992"/>
<path d="M136.373 0.00823975V26.7413H132.411V0.00823975H136.373Z" fill="#0D5992"/>
<path d="M150.252 26.7656H146.659L138.588 8.01422H142.956L148.561 21.45L154.104 8.01422H158.315L150.252 26.7656Z" fill="#0D5992"/>
<path d="M158.214 17.3491C158.173 16.0589 158.379 14.7729 158.819 13.5664C159.26 12.3598 159.927 11.2567 160.782 10.3214C161.642 9.38949 162.681 8.65671 163.832 8.1707C164.982 7.6847 166.219 7.45634 167.46 7.50049C169.143 7.45421 170.795 7.99034 172.157 9.02508C174.703 10.9111 175.974 13.7374 175.969 17.504V18.572H162.215C162.311 19.3124 162.554 20.0238 162.929 20.661C163.303 21.2981 163.801 21.8473 164.39 22.2734C165.751 23.2124 167.362 23.6803 168.994 23.6105C171.036 23.6173 173.04 23.036 174.787 21.931V25.4123C172.811 26.7199 170.494 27.3579 168.156 27.2385C165.556 27.2935 163.036 26.3104 161.11 24.491C160.161 23.5889 159.411 22.4834 158.911 21.2505C158.41 20.0176 158.173 18.6868 158.214 17.3491ZM162.246 15.4414H171.999C171.978 14.8248 171.84 14.2189 171.591 13.6589C171.343 13.0989 170.99 12.5963 170.551 12.1802C170.115 11.7642 169.602 11.4432 169.044 11.236C168.486 11.0288 167.894 10.9396 167.302 10.9736C166.033 10.9268 164.793 11.3843 163.835 12.2536C162.927 13.0605 162.357 14.2039 162.246 15.4414Z" fill="#0D5992"/>
<path d="M35.7997 7.9979H9.24544L0 0H26.5464L35.7997 7.9979Z" fill="#0D5992"/>
<path d="M0 17.0559H26.5464L35.7997 7.99805H9.24544L0 17.0559Z" fill="#FF774C"/>
<path d="M35.7918 26.839H9.24544L0 17.0556H26.5464L35.7918 26.839Z" fill="#0D5992"/>
<path d="M52.8031 26.7981H48.7636V0.0161743H60.5064C63.1524 0.0161743 65.2244 0.717317 66.7222 2.1196C67.4664 2.80834 68.0562 3.65897 68.4499 4.61135C68.8436 5.56371 69.0315 6.59454 69.0004 7.63089C69.0625 9.35278 68.5343 11.0415 67.5101 12.3948C66.4861 13.7481 65.0329 14.6777 63.4108 15.0174L71.4976 26.7981H66.6126L58.8545 15.4739H52.8031V26.7981ZM52.8031 3.8806V11.797H60.2324C61.4556 11.8718 62.6662 11.5062 63.6613 10.7616C64.0745 10.4045 64.4017 9.95149 64.6165 9.43896C64.8313 8.92644 64.9278 8.36862 64.8982 7.81026C64.9222 7.26446 64.8227 6.72044 64.6079 6.22198C64.393 5.72353 64.0687 5.28456 63.6613 4.94046C62.6652 4.19869 61.4547 3.83601 60.2324 3.91321L52.8031 3.8806Z" fill="#0D5992"/>
</g>
</svg>
