<svg width="73" height="74" viewBox="0 0 73 74" fill="none" xmlns="http://www.w3.org/2000/svg">
<path d="M1 39.7104C8.60132 36.4758 16.4008 31.8902 22.4168 26.2258C24.3856 24.3721 29.2998 18.5335 26.1845 15.4183C25.2551 14.4888 23.7755 17.0718 23.4827 17.5252C20.9515 21.4445 19.1108 25.263 18.5003 29.944C17.0081 41.3844 19.9014 54.3859 15.2531 65.2916C14.1187 67.953 11.4572 73.8307 7.49444 72.8767C2.18904 71.5995 2.16648 62.9332 5.21395 59.7639C8.32399 56.5294 12.6608 54.6859 16.9386 53.6165C19.7981 52.9016 21.4411 52.006 23.3091 54.4345C23.6184 54.8365 24.8103 56.9862 25.5401 56.9133C27.0394 56.7633 28.9458 52.9421 29.4565 51.8069C29.7038 51.2575 30.3887 48.291 30.4233 48.5845C30.5662 49.7997 30.09 51.3316 30.8942 52.3771C32.8695 54.9449 35.9215 48.867 36.4963 47.4938C37.2551 45.6812 37.37 44.1417 37.7853 47.0972C38.0031 48.6474 38.1794 50.2201 38.4794 51.7574C39.0145 54.5001 46.0912 49.8064 46.6098 49.5265C61.4162 41.5343 71.7263 23.0958 71.9431 6.2963C71.9585 5.09907 72.2964 2.1456 70.9516 1.33872C68.3905 -0.197898 63.2374 3.92118 61.4826 5.15606C54.8382 9.83168 48.4448 15.9334 45.4448 23.6479C42.7946 30.4627 43.506 41.5611 50.675 45.61C55.7852 48.496 64.1519 49.3857 69.9105 48.4358C71.5893 48.1589 70.8735 47.2435 69.2164 49.6256C65.7534 54.6036 63.9118 60.0222 63.9118 66.0352" stroke="#929292" stroke-linecap="round"/>
</svg>
