<svg width="141" height="28" viewBox="0 0 141 28" fill="none" xmlns="http://www.w3.org/2000/svg">
<g clipPath="url(#clip0_3_1976)">
<path d="M60.1768 28C59.2797 28.0612 58.3819 27.8933 57.5615 27.5109V24.6085C58.211 24.9399 58.9265 25.1075 59.65 25.0976C60.0324 25.1033 60.4117 25.0249 60.7629 24.8675C61.1142 24.7102 61.4295 24.4774 61.6883 24.1845C62.4129 23.353 62.9866 22.3917 63.3816 21.3474L57.066 6.39185H60.5907L64.937 17.1275L69.139 6.39185H72.5759L65.6771 23.3497C64.3809 26.4543 62.5475 28.0044 60.1768 28Z" fill="#0D5992"/>
<path d="M87.0008 21.393H73.9243V19.2211L81.9458 9.32038H74.4198V6.41797H86.499V8.68119L78.4776 18.5167H86.9694L87.0008 21.393Z" fill="#0D5992"/>
<path d="M95.6118 21.7908C94.5622 21.8289 93.516 21.6458 92.5363 21.2523C91.5565 20.8589 90.6635 20.2633 89.9109 19.5015C88.482 18.0143 87.6793 15.998 87.6793 13.8956C87.6793 11.7932 88.482 9.77691 89.9109 8.28973C91.4656 6.8167 93.493 6.00024 95.5962 6.00024C97.6993 6.00024 99.7268 6.8167 101.281 8.28973C102.004 9.01119 102.575 9.8801 102.959 10.842C103.343 11.8038 103.532 12.8379 103.514 13.8793C103.531 14.9253 103.341 15.9637 102.957 16.9306C102.573 17.8975 102.003 18.7724 101.281 19.5015C100.532 20.2584 99.6439 20.8511 98.67 21.2443C97.6961 21.6376 96.6561 21.8234 95.6118 21.7908ZM95.6118 18.8884C96.2397 18.902 96.8635 18.7817 97.4449 18.5349C98.0263 18.2881 98.5529 17.9201 98.9923 17.4535C99.8581 16.4875 100.34 15.2161 100.34 13.8956C100.34 12.5751 99.8581 11.3036 98.9923 10.3377C98.4315 9.75437 97.7408 9.32409 96.9816 9.0851C96.2224 8.84612 95.4182 8.80581 94.6404 8.96777C93.8626 9.12973 93.1354 9.48894 92.5232 10.0135C91.911 10.538 91.4329 11.2117 91.1313 11.9746C90.8296 12.7376 90.7139 13.5662 90.7942 14.3868C90.8746 15.2075 91.1486 15.9948 91.5919 16.6788C92.0352 17.3629 92.6341 17.9225 93.3354 18.3079C94.0367 18.6934 94.8187 18.8928 95.6118 18.8884Z" fill="#0D5992"/>
<path d="M109.253 0.0065918V21.393H106.079V0.0065918H109.253Z" fill="#0D5992"/>
<path d="M120.372 21.4125H117.494L111.028 6.41138H114.527L119.018 17.16L123.458 6.41138H126.832L120.372 21.4125Z" fill="#0D5992"/>
<path d="M126.751 13.8793C126.718 12.8471 126.883 11.8183 127.236 10.8531C127.589 9.88782 128.123 9.00535 128.808 8.25709C129.497 7.51159 130.33 6.92537 131.252 6.53656C132.173 6.14776 133.164 5.96507 134.158 6.00039C135.507 5.96337 136.83 6.39227 137.921 7.22006C139.961 8.72887 140.979 10.9899 140.975 14.0032V14.8576H129.956C130.033 15.4499 130.228 16.019 130.528 16.5288C130.828 17.0385 131.227 17.4778 131.699 17.8187C132.789 18.5699 134.08 18.9442 135.387 18.8884C137.023 18.8938 138.629 18.4288 140.028 17.5448V20.3298C138.445 21.3759 136.589 21.8863 134.716 21.7908C132.633 21.8348 130.614 21.0483 129.071 19.5928C128.311 18.8711 127.71 17.9867 127.309 17.0004C126.908 16.0141 126.718 14.9494 126.751 13.8793ZM129.981 12.3531H137.795C137.778 11.8598 137.667 11.3751 137.468 10.9271C137.269 10.4791 136.986 10.077 136.635 9.74414C136.285 9.41132 135.874 9.15453 135.427 8.98879C134.98 8.82304 134.506 8.75168 134.032 8.77887C133.015 8.74141 132.022 9.10744 131.254 9.80286C130.527 10.4484 130.07 11.3631 129.981 12.3531Z" fill="#0D5992"/>
<path d="M28.6804 6.39832H7.40686L0 0H21.2673L28.6804 6.39832Z" fill="#0D5992"/>
<path d="M0 13.6447H21.2673L28.6804 6.39844H7.40686L0 13.6447Z" fill="#FF774C"/>
<path d="M28.6741 21.4712H7.40686L0 13.6445H21.2673L28.6741 21.4712Z" fill="#0D5992"/>
<path d="M42.3025 21.4385H39.0663V0.0129395H48.4739C50.5937 0.0129395 52.2536 0.573854 53.4536 1.69568C54.0498 2.24667 54.5223 2.92718 54.8377 3.68908C55.1531 4.45097 55.3036 5.27563 55.2787 6.10471C55.3285 7.48222 54.9053 8.8332 54.0848 9.91587C53.2644 10.9985 52.1002 11.7422 50.8007 12.0139L57.2793 21.4385H53.3658L47.1505 12.3791H42.3025V21.4385ZM42.3025 3.10448V9.43758H48.2544C49.2343 9.49746 50.2042 9.20499 51.0014 8.60925C51.3324 8.32357 51.5945 7.96119 51.7666 7.55117C51.9387 7.14115 52.016 6.6949 51.9923 6.24821C52.0115 5.81157 51.9318 5.37635 51.7597 4.97758C51.5876 4.57882 51.3278 4.22765 51.0014 3.95237C50.2034 3.35895 49.2336 3.06881 48.2544 3.13057L42.3025 3.10448Z" fill="#0D5992"/>
</g>
<defs>
<clipPath id="clip0_3_1976">
<rect width="141" height="28" fill="white"/>
</clipPath>
</defs>
</svg>
